<!--?xml version="1.0" encoding="UTF-8"?-->
<svg role="img" viewBox="0 0 24 24" xmlns="http://www.w3.org/2000/svg" aria-label="WhatsApp">
  <title>WhatsApp</title>
  <path fill="#FFFFFF" d="M17.472 14.382c-.297-.149-1.758-.867-2.03-.967-.273-.099-.472-.148-.673.15-.198.297-.768.966-.94 1.164-.173.198-.347.223-.644.074-.297-.149-1.255-.462-2.39-1.475-.883-.788-1.48-1.761-1.653-2.059-.173-.297-.018-.458.13-.606.134-.133.297-.347.446-.52.149-.173.198-.297.298-.495.099-.198.05-.372-.025-.521-.075-.149-.673-1.625-.923-2.224-.243-.584-.49-.505-.673-.514l-.575-.01c-.198 0-.52.074-.792.372s-1.04 1.016-1.04 2.479 1.065 2.876 1.213 3.074c.149.198 2.095 3.2 5.076 4.487.709.306 1.262.489 1.694.626.712.226 1.36.194 1.872.118.571-.085 1.758-.718 2.006-1.412.248-.694.248-1.289.173-1.413-.074-.124-.272-.198-.571-.347m-5.421 7.403h-.004a9.87 9.87 0 0 1-5.031-1.378l-.361-.214-3.741.982.999-3.648-.235-.374a9.86 9.86 0 0 1-1.51-5.27c.002-5.45 4.436-9.884 9.888-9.884 2.642.001 5.122 1.031 6.988 2.898a9.825 9.825 0 0 1 2.893 6.993c-.003 5.45-4.437 9.884-9.887 9.884M20.52 3.449A11.815 11.815 0 0 0 12.052 0C5.495 0 .16 5.335.157 11.893c0 2.096.547 4.142 1.588 5.945L0 24l6.305-1.654a11.86 11.86 0 0 0 5.709 1.456h.005c6.557 0 11.893-5.335 11.896-11.893A11.821 11.821 0 0 0 20.52 3.449"></path>
</svg>
